<?xml version="1.0"?>
<svg xmlns="http://www.w3.org/2000/svg" height="512px" viewBox="0 -21 512 512" width="512px" class=""><g><path d="m453.332031 469.332031h-394.664062c-32.363281 0-58.667969-26.300781-58.667969-58.664062v-352c0-32.363281 26.304688-58.667969 58.667969-58.667969h394.664062c32.363281 0 58.667969 26.304688 58.667969 58.667969v352c0 32.363281-26.304688 58.664062-58.667969 58.664062zm-394.664062-437.332031c-14.699219 0-26.667969 11.96875-26.667969 26.667969v352c0 14.699219 11.96875 26.664062 26.667969 26.664062h394.664062c14.699219 0 26.667969-11.964843 26.667969-26.664062v-352c0-14.699219-11.96875-26.667969-26.667969-26.667969zm0 0" data-original="#000000" class="active-path" data-old_color="#000000" fill="#FFFFFF"/><path d="m496 117.332031h-480c-8.832031 0-16-7.167969-16-16s7.167969-16 16-16h480c8.832031 0 16 7.167969 16 16s-7.167969 16-16 16zm0 0" data-original="#000000" class="active-path" data-old_color="#000000" fill="#FFFFFF"/><path d="m117.332031 346.667969c-8.832031 0-16-7.167969-16-16v-85.335938c0-8.832031 7.167969-16 16-16s16 7.167969 16 16v85.335938c0 8.832031-7.167969 16-16 16zm0 0" data-original="#000000" class="active-path" data-old_color="#000000" fill="#FFFFFF"/><path d="m80.40625 325.332031c-5.527344 0-10.902344-2.878906-13.867188-8-4.417968-7.636719-1.792968-17.429687 5.84375-21.84375l73.898438-42.667969c7.660156-4.4375 17.429688-1.789062 21.847656 5.847657 4.414063 7.636719 1.792969 17.429687-5.847656 21.84375l-73.898438 42.667969c-2.515624 1.472656-5.269531 2.152343-7.976562 2.152343zm0 0" data-original="#000000" class="active-path" data-old_color="#000000" fill="#FFFFFF"/><path d="m154.261719 325.332031c-2.710938 0-5.460938-.679687-8-2.152343l-73.898438-42.667969c-7.660156-4.414063-10.261719-14.207031-5.847656-21.84375 4.417969-7.636719 14.230469-10.285157 21.847656-5.847657l73.898438 42.667969c7.660156 4.414063 10.261719 14.207031 5.84375 21.84375-2.921875 5.121094-8.320313 8-13.84375 8zm0 0" data-original="#000000" class="active-path" data-old_color="#000000" fill="#FFFFFF"/><path d="m256 346.667969c-8.832031 0-16-7.167969-16-16v-85.335938c0-8.832031 7.167969-16 16-16s16 7.167969 16 16v85.335938c0 8.832031-7.167969 16-16 16zm0 0" data-original="#000000" class="active-path" data-old_color="#000000" fill="#FFFFFF"/><path d="m219.070312 325.332031c-5.523437 0-10.898437-2.878906-13.863281-8-4.417969-7.636719-1.792969-17.429687 5.84375-21.84375l73.898438-42.667969c7.636719-4.4375 17.449219-1.789062 21.84375 5.847657 4.417969 7.636719 1.792969 17.429687-5.84375 21.84375l-73.898438 42.667969c-2.515625 1.472656-5.269531 2.152343-7.980469 2.152343zm0 0" data-original="#000000" class="active-path" data-old_color="#000000" fill="#FFFFFF"/><path d="m292.929688 325.332031c-2.710938 0-5.464844-.679687-8-2.152343l-73.898438-42.667969c-7.660156-4.414063-10.261719-14.207031-5.847656-21.84375 4.417968-7.636719 14.207031-10.285157 21.847656-5.847657l73.898438 42.667969c7.65625 4.414063 10.257812 14.207031 5.84375 21.84375-2.921876 5.121094-8.320313 8-13.84375 8zm0 0" data-original="#000000" class="active-path" data-old_color="#000000" fill="#FFFFFF"/><path d="m405.332031 346.667969c-8.832031 0-16-7.167969-16-16v-85.335938c0-8.832031 7.167969-16 16-16s16 7.167969 16 16v85.335938c0 8.832031-7.167969 16-16 16zm0 0" data-original="#000000" class="active-path" data-old_color="#000000" fill="#FFFFFF"/><path d="m368.40625 325.332031c-5.527344 0-10.902344-2.878906-13.867188-8-4.417968-7.636719-1.792968-17.429687 5.84375-21.84375l73.898438-42.667969c7.617188-4.4375 17.453125-1.789062 21.847656 5.847657 4.414063 7.636719 1.792969 17.429687-5.847656 21.84375l-73.898438 42.667969c-2.515624 1.472656-5.269531 2.152343-7.976562 2.152343zm0 0" data-original="#000000" class="active-path" data-old_color="#000000" fill="#FFFFFF"/><path d="m442.261719 325.332031c-2.710938 0-5.460938-.679687-8-2.152343l-73.898438-42.667969c-7.660156-4.414063-10.261719-14.207031-5.847656-21.84375 4.417969-7.636719 14.210937-10.285157 21.847656-5.847657l73.898438 42.667969c7.660156 4.414063 10.261719 14.207031 5.84375 21.84375-2.921875 5.121094-8.320313 8-13.84375 8zm0 0" data-original="#000000" class="active-path" data-old_color="#000000" fill="#FFFFFF"/></g> </svg>
